<?xml version="1.0" encoding="UTF-8"?>
<svg width="51px" height="50px" viewBox="0 0 51 50" version="1.1" xmlns="http://www.w3.org/2000/svg" xmlns:xlink="http://www.w3.org/1999/xlink">
    <!-- Generator: Sketch 48.2 (47327) - http://www.bohemiancoding.com/sketch -->
    <title>Group</title>
    <desc>Created with Sketch.</desc>
    <defs></defs>
    <g id="new-6-2" stroke="none" stroke-width="1" fill="none" fill-rule="evenodd" transform="translate(-500.000000, -35.000000)">
        <g id="Group-15" transform="translate(500.000000, 35.000000)">
            <g id="Group">
                <path d="M1.17942093,22.7052384 L10.3718091,13.5128502 L28.7565854,31.8976265 L17.867141,42.787071 C17.6328264,43.0213855 17.2529274,43.0213855 17.0186128,42.787071 L1.17942093,26.9478791 C0.0078480503,25.7763062 0.0078480503,23.8768112 1.17942093,22.7052384 Z" id="Rectangle-10" fill="#4FC79D"></path>
                <path d="M19.7299984,46.5810677 L34.4134396,31.8976265 L21.6855176,19.1697045 L32.574962,8.28026005 C32.8092766,8.04594547 33.1891756,8.04594547 33.4234902,8.28026005 L49.262682,24.1194519 C50.4342549,25.2910248 50.4342549,27.1905197 49.262682,28.3620926 L32.2921193,45.3326554 L35.9214189,48.961955 C36.0385762,49.0791123 36.0385762,49.2690617 35.9214189,49.386219 C35.8563239,49.4513141 35.7649458,49.4829184 35.6735433,49.4719501 L20.0827754,47.6010579 C19.7537649,47.5615766 19.5190551,47.2628551 19.5585364,46.9338447 C19.5745541,46.8003639 19.6349362,46.67613 19.7299984,46.5810677 Z" id="Combined-Shape" fill="#FFFFFF"></path>
                <path d="M4.71495483,19.1697045 L19.5641972,4.32046206 L25.2210515,9.97731631 L4.71495483,30.483413 C1.5907605,27.3592186 1.5907605,22.2938988 4.71495483,19.1697045 Z" id="Rectangle-10" fill="#4FC79D"></path>
                <path d="M31.4192113,3.77915651 L24.5139447,10.6844231 L15.2277909,1.39826927 C15.1106336,1.28111197 15.1106336,1.09116247 15.2277909,0.974005181 C15.2928859,0.908910142 15.384264,0.877305856 15.4756665,0.888274161 L31.0664343,2.7591663 C31.3954448,2.79864756 31.6301546,3.09736911 31.5906733,3.42637956 C31.5746556,3.55986029 31.5142736,3.68409424 31.4192113,3.77915651 Z" id="Triangle" fill="#4FC79D"></path>
            </g>
        </g>
    </g>
</svg>