<?xml version="1.0" encoding="UTF-8"?>
<svg width="185px" height="50px" viewBox="0 0 185 50" version="1.1" xmlns="http://www.w3.org/2000/svg" xmlns:xlink="http://www.w3.org/1999/xlink">
    <!-- Generator: Sketch 48.2 (47327) - http://www.bohemiancoding.com/sketch -->
    <title>Group 15</title>
    <desc>Created with Sketch.</desc>
    <defs></defs>
    <g id="new-6-2" stroke="none" stroke-width="1" fill="none" fill-rule="evenodd" transform="translate(-500.000000, -35.000000)">
        <g id="Group-15" transform="translate(500.000000, 35.000000)">
            <g id="Group">
                <path d="M1.17942093,22.7052384 L10.3718091,13.5128502 L28.7565854,31.8976265 L17.867141,42.787071 C17.6328264,43.0213855 17.2529274,43.0213855 17.0186128,42.787071 L1.17942093,26.9478791 C0.0078480503,25.7763062 0.0078480503,23.8768112 1.17942093,22.7052384 Z" id="Rectangle-10" fill="#4FC79D"></path>
                <path d="M19.7299984,46.5810677 L34.4134396,31.8976265 L21.6855176,19.1697045 L32.574962,8.28026005 C32.8092766,8.04594547 33.1891756,8.04594547 33.4234902,8.28026005 L49.262682,24.1194519 C50.4342549,25.2910248 50.4342549,27.1905197 49.262682,28.3620926 L32.2921193,45.3326554 L35.9214189,48.961955 C36.0385762,49.0791123 36.0385762,49.2690617 35.9214189,49.386219 C35.8563239,49.4513141 35.7649458,49.4829184 35.6735433,49.4719501 L20.0827754,47.6010579 C19.7537649,47.5615766 19.5190551,47.2628551 19.5585364,46.9338447 C19.5745541,46.8003639 19.6349362,46.67613 19.7299984,46.5810677 Z" id="Combined-Shape" fill="#FFFFFF"></path>
                <path d="M4.71495483,19.1697045 L19.5641972,4.32046206 L25.2210515,9.97731631 L4.71495483,30.483413 C1.5907605,27.3592186 1.5907605,22.2938988 4.71495483,19.1697045 Z" id="Rectangle-10" fill="#4FC79D"></path>
                <path d="M31.4192113,3.77915651 L24.5139447,10.6844231 L15.2277909,1.39826927 C15.1106336,1.28111197 15.1106336,1.09116247 15.2277909,0.974005181 C15.2928859,0.908910142 15.384264,0.877305856 15.4756665,0.888274161 L31.0664343,2.7591663 C31.3954448,2.79864756 31.6301546,3.09736911 31.5906733,3.42637956 C31.5746556,3.55986029 31.5142736,3.68409424 31.4192113,3.77915651 Z" id="Triangle" fill="#4FC79D"></path>
            </g>
            <g id="Group-2" transform="translate(67.000000, 12.000000)">
                <path d="M50.4459075,5.48 L44.3619075,5.48 L44.3619075,10.916 L50.0859075,10.916 L50.0859075,15.596 L44.3619075,15.596 L44.3619075,21.32 L50.4459075,21.32 L50.4459075,26 L39.5379075,26 L39.5379075,0.8 L50.4459075,0.8 L50.4459075,5.48 Z M67.4954197,8 L64.2554197,16.784 L67.6394197,26 L63.4634197,26 L61.0514197,20.096 L58.6394197,26 L54.4634197,26 L57.8834197,16.82 L54.6434197,8 L58.8194197,8 L61.0514197,14.66 L63.3194197,8 L67.4954197,8 Z M72.2689319,0.8 L78.0649319,0.8 C79.0969371,0.8 80.0689274,0.91399886 80.9809319,1.142 C81.8929365,1.37000114 82.7509279,1.73599748 83.5549319,2.24 C84.3589359,2.74400252 85.0009295,3.46999526 85.4809319,4.418 C85.9609343,5.36600474 86.2009319,6.48799352 86.2009319,7.784 L86.2009319,9.44 C86.2009319,10.6160059 85.9849341,11.6599954 85.5529319,12.572 C85.1209298,13.4840046 84.5389356,14.1979974 83.8069319,14.714 C83.0749283,15.2300026 82.2889361,15.6259986 81.4489319,15.902 C80.6089277,16.1780014 79.7089367,16.3399998 78.7489319,16.388 L77.0929319,16.388 L77.0929319,26 L72.2689319,26 L72.2689319,0.8 Z M81.4849319,8.792 L81.4849319,8.432 C81.4849319,7.37599472 81.2329344,6.61400234 80.7289319,6.146 C80.2249294,5.67799766 79.5889358,5.444 78.8209319,5.444 L77.0929319,5.444 L77.0929319,11.744 L78.8209319,11.744 C79.5649356,11.744 80.1949293,11.5100023 80.7109319,11.042 C81.2269345,10.5739977 81.4849319,9.82400516 81.4849319,8.792 Z M98.6064442,8 L101.414444,8 L101.414444,26 L98.6064442,26 L98.1024442,24.416 C97.2864401,25.6640062 96.0384526,26.288 94.3584442,26.288 C93.7824413,26.288 93.2304468,26.1800011 92.7024442,25.964 C92.1744415,25.7479989 91.6704466,25.4060023 91.1904442,24.938 C90.7104418,24.4699977 90.3324455,23.8100043 90.0564442,22.958 C89.7804428,22.1059957 89.6424442,21.1040058 89.6424442,19.952 L89.6424442,14.012 C89.6424442,12.8599942 89.7804428,11.8580043 90.0564442,11.006 C90.3324455,10.1539957 90.7104418,9.49400234 91.1904442,9.026 C91.6704466,8.55799766 92.1744415,8.21600108 92.7024442,8 C93.2304468,7.78399892 93.7824413,7.676 94.3584442,7.676 C96.0144524,7.676 97.2504401,8.275994 98.0664442,9.476 L98.6064442,8 Z M93.7104442,16.028 L93.7104442,17.936 C93.7104442,19.736009 93.8484428,20.9659967 94.1244442,21.626 C94.4004455,22.2860033 94.8744408,22.616 95.5464442,22.616 C96.2184475,22.616 96.6924428,22.2860033 96.9684442,21.626 C97.2444455,20.9659967 97.3704443,19.736009 97.3464442,17.936 L97.3464442,16.028 C97.3464442,14.2519911 97.2024456,13.0280034 96.9144442,12.356 C96.6264427,11.6839966 96.1704473,11.348 95.5464442,11.348 C94.8984409,11.348 94.4304456,11.6779967 94.1424442,12.338 C93.8544427,12.9980033 93.7104442,14.227991 93.7104442,16.028 Z M113.459956,7.964 L117.527956,7.964 L117.527956,26.036 C117.503956,27.1640056 117.317958,28.1419959 116.969956,28.97 C116.621955,29.7980041 116.153959,30.4339978 115.565956,30.878 C114.977953,31.3220022 114.35996,31.6519989 113.711956,31.868 C113.063953,32.0840011 112.37996,32.192 111.659956,32.192 C110.795952,32.192 109.98596,32.0540014 109.229956,31.778 C108.473953,31.5019986 107.77796,30.9920037 107.141956,30.248 C106.505953,29.5039963 106.103957,28.5560058 105.935956,27.404 L110.039956,27.404 C110.279958,28.1480037 110.807952,28.52 111.623956,28.52 C112.223959,28.52 112.679955,28.3040022 112.991956,27.872 C113.303958,27.4399978 113.459956,26.6960053 113.459956,25.64 L113.459956,24.632 C112.739953,25.5440046 111.695963,26 110.327956,26 C109.05595,26 107.975961,25.502005 107.087956,24.506 C106.199952,23.509995 105.755956,21.8960112 105.755956,19.664 L105.755956,8 L109.787956,8 L109.787956,17.648 C109.787956,19.448009 109.931955,20.6839966 110.219956,21.356 C110.507958,22.0280034 110.975953,22.364 111.623956,22.364 C112.27196,22.364 112.739955,22.0220034 113.027956,21.338 C113.315958,20.6539966 113.459956,19.412009 113.459956,17.612 L113.459956,7.964 Z" id="24ExPay" fill="#FFFFFF"></path>
                <path d="M8.18366347,1.952 L8.47166347,1.952 C9.35966791,1.952 10.2056595,2.09599856 11.0096635,2.384 C11.8136675,2.67200144 12.5696599,3.09799718 13.2776635,3.662 C13.985667,4.22600282 14.5496614,5.02399484 14.9696635,6.056 C15.3896656,7.08800516 15.5996635,8.27599328 15.5996635,9.62 L15.5996635,9.692 C15.5996635,10.7480053 15.4136653,11.7019957 15.0416635,12.554 C14.6696616,13.4060043 14.2016663,14.1139972 13.6376635,14.678 C13.0736607,15.2420028 12.437667,15.8059972 11.7296635,16.37 C11.0216599,16.9340028 10.3436667,17.4379978 9.69566347,17.882 C9.04766023,18.3260022 8.44166629,18.847997 7.87766347,19.448 C7.31366065,20.048003 6.89966479,20.6719968 6.63566347,21.32 L15.4196635,21.32 L15.4196635,26 L0.875663474,26 L0.875663474,23.624 C0.875663474,22.5679947 1.01966203,21.5840046 1.30766347,20.672 C1.59566491,19.7599954 1.96766119,18.9920031 2.42366347,18.368 C2.87966575,17.7439969 3.40166053,17.1440029 3.98966347,16.568 C4.57766641,15.9919971 5.17766041,15.506002 5.78966347,15.11 C6.40166653,14.713998 7.00166053,14.3000022 7.58966347,13.868 C8.17766641,13.4359978 8.69966119,13.0280019 9.15566347,12.644 C9.61166575,12.2599981 9.97766209,11.8220025 10.2536635,11.33 C10.5296649,10.8379975 10.6676635,10.3040029 10.6676635,9.728 C10.6676635,8.79199532 10.4516656,8.04200282 10.0196635,7.478 C9.58766131,6.91399718 9.03566683,6.632 8.36366347,6.632 L8.18366347,6.632 C7.55966035,6.65600012 7.03766557,6.96199706 6.61766347,7.55 C6.19766137,8.13800294 5.92766407,8.98399448 5.80766347,10.088 L0.839663474,10.088 L0.875663474,9.836 C0.947663834,8.41999292 1.20566125,7.18400528 1.64966347,6.128 C2.09366569,5.07199472 2.67565987,4.25000294 3.39566347,3.662 C4.11566707,3.07399706 4.87165951,2.64200138 5.66366347,2.366 C6.45566743,2.08999862 7.29565903,1.952 8.18366347,1.952 Z" id="Path" fill="#4FC79D"></path>
                <polygon id="Path" fill="#4FC79D" points="35.2907855 17.324 35.2907855 22.004 33.8147855 22.004 33.8147855 26 28.8467855 26 28.8467855 22.004 19.5587855 22.004 19.5587855 16.316 23.9147855 1.988 28.7747855 1.988 24.4907855 17.324 28.8467855 17.324 28.8467855 8 33.8147855 8 33.8147855 17.324"></polygon>
            </g>
        </g>
    </g>
</svg>